<?xml version="1.0" encoding="UTF-8"?>
<svg width="151px" height="40px" viewBox="0 0 151 40" version="1.1" xmlns="http://www.w3.org/2000/svg" xmlns:xlink="http://www.w3.org/1999/xlink">
    <!-- Generator: Sketch 49 (51002) - http://www.bohemiancoding.com/sketch -->
    <title>Roadie R Logo Horizontal_BROWN</title>
    <desc>Created with Sketch.</desc>
    <defs>
        <polygon id="path-1" points="0.0239361702 0.253723404 149.625798 0.253723404 149.625798 39.8932181 0.0239361702 39.8932181"></polygon>
    </defs>
    <g id="Symbols" stroke="none" stroke-width="1" fill="none" fill-rule="evenodd">
        <g id="00-Navigation" transform="translate(-100.000000, -40.000000)">
            <g id="Roadie-R-Logo-Horizontal_BROWN">
                <g transform="translate(100.390625, 40.000000)">
                    <g id="Group-5">
                        <mask id="mask-2" fill="white">
                            <use xlink:href="#path-1"></use>
                        </mask>
                        <g id="Clip-2"></g>
                        <path d="M141.460372,24.2054521 C141.460372,24.2054521 141.227394,24.2054521 141.227394,23.9724734 L141.227394,21.9598404 C141.227394,21.9598404 141.227394,21.7260638 141.460372,21.7260638 L148.499202,21.7260638 C148.499202,21.7260638 148.732181,21.7260638 148.732181,21.4930851 L148.732181,18.5425532 C148.732181,18.5425532 148.732181,18.3087766 148.499202,18.3087766 L141.460372,18.3087766 C141.460372,18.3087766 141.227394,18.3087766 141.227394,18.0757979 L141.227394,16.1744681 C141.227394,16.1744681 141.227394,15.9414894 141.460372,15.9414894 L149.281516,15.9414894 C149.281516,15.9414894 149.514495,15.9414894 149.514495,15.7081117 L149.514495,12.4882979 C149.514495,12.4882979 149.514495,12.2553191 149.281516,12.2553191 L137.171809,12.2553191 C137.171809,12.2553191 136.93883,12.2553191 136.93883,12.4882979 L136.93883,27.6582447 C136.93883,27.6582447 136.93883,27.8920213 137.171809,27.8920213 L149.392819,27.8920213 C149.392819,27.8920213 149.625798,27.8920213 149.625798,27.6582447 L149.625798,24.4392287 C149.625798,24.4392287 149.625798,24.2054521 149.392819,24.2054521 L141.460372,24.2054521 Z M126.372207,27.6582447 C126.372207,27.6582447 126.372207,27.8920213 126.605186,27.8920213 L130.494814,27.8920213 C130.494814,27.8920213 130.727793,27.8920213 130.727793,27.6582447 L130.727793,12.4882979 C130.727793,12.4882979 130.727793,12.2553191 130.494814,12.2553191 L126.605186,12.2553191 C126.605186,12.2553191 126.372207,12.2553191 126.372207,12.4882979 L126.372207,27.6582447 Z M120.697739,20.0293883 L120.697739,19.9839096 C120.697739,15.4719415 117.457979,12.2553191 111.87367,12.2553191 L106.07633,12.2553191 C106.07633,12.2553191 105.842553,12.2553191 105.842553,12.4882979 L105.842553,27.6582447 C105.842553,27.6582447 105.842553,27.8920213 106.07633,27.8920213 L111.78391,27.8920213 C117.413298,27.8920213 120.697739,24.5413564 120.697739,20.0293883 Z M116.252394,20.0964096 C116.252394,22.6200798 114.532181,24.0490691 111.941489,24.0490691 L110.409574,24.0490691 C110.409574,24.0490691 110.176596,24.0490691 110.176596,23.8160904 L110.176596,16.33125 C110.176596,16.33125 110.176596,16.0974734 110.409574,16.0974734 L111.941489,16.0974734 C114.532181,16.0974734 116.252394,17.55 116.252394,20.0517287 L116.252394,20.0964096 Z M96.237766,27.6753989 C96.237766,27.6753989 96.3259309,27.8920213 96.5597074,27.8920213 L100.738564,27.8920213 C100.738564,27.8920213 100.971543,27.8920213 100.880984,27.6765957 L94.4058511,12.3590426 C94.4058511,12.3590426 94.3156915,12.144016 94.0819149,12.144016 L90.3714096,12.144016 C90.3714096,12.144016 90.1384309,12.144016 90.0474734,12.3590426 L83.5731383,27.6765957 C83.5731383,27.6765957 83.4821809,27.8920213 83.7159574,27.8920213 L87.8050532,27.8920213 C87.8050532,27.8920213 88.0380319,27.8920213 88.125,27.6753989 L89.068883,25.3156915 C89.068883,25.3156915 89.1558511,25.099867 89.3888298,25.099867 L94.9531915,25.099867 C94.9531915,25.099867 95.1869681,25.099867 95.274734,25.3156915 L96.237766,27.6753989 Z M93.849734,21.5094415 C93.849734,21.5094415 93.9355053,21.7260638 93.7017287,21.7260638 L90.6630319,21.7260638 C90.6630319,21.7260638 90.4292553,21.7260638 90.5150266,21.5094415 L92.1075798,17.4985372 C92.1075798,17.4985372 92.1941489,17.2819149 92.2787234,17.4985372 L93.849734,21.5094415 Z M80.1339096,20.0736702 L80.1339096,20.0293883 C80.1339096,15.5389628 76.5598404,11.9429521 71.7343085,11.9429521 C66.9099734,11.9429521 63.2912234,15.5840426 63.2912234,20.0736702 L63.2912234,20.11875 C63.2912234,24.6083777 66.8644947,28.2043883 71.6900266,28.2043883 C76.5155585,28.2043883 80.1339096,24.5640957 80.1339096,20.0736702 Z M75.7105053,20.11875 C75.7105053,22.3743351 74.125133,24.2952128 71.7343085,24.2952128 C69.3674202,24.2952128 67.7365691,22.3292553 67.7365691,20.0736702 L67.7365691,20.0293883 C67.7365691,17.7726064 69.3223404,15.8521277 71.6900266,15.8521277 C74.0796543,15.8521277 75.7105053,17.8172872 75.7105053,20.0736702 L75.7105053,20.11875 Z M58.8003989,27.8920213 L55.0703457,22.4413564 C57.012766,21.6155585 58.2857713,20.0293883 58.2857713,17.6393617 L58.2857713,17.5942819 C58.2857713,16.0531915 57.8170213,14.8468085 56.9022606,13.9531915 C55.8518617,12.88125 54.1982713,12.2553191 51.8086436,12.2553191 L44.6481383,12.2553191 C44.6481383,12.2553191 44.4151596,12.2553191 44.4151596,12.4882979 L44.4151596,27.6582447 C44.4151596,27.6582447 44.4151596,27.8920213 44.6481383,27.8920213 L48.5142287,27.8920213 C48.5142287,27.8920213 48.7480053,27.8920213 48.7480053,27.6582447 L48.7480053,23.3896277 C48.7480053,23.3896277 48.7480053,23.1558511 48.980984,23.1558511 L50.6242021,23.1558511 C50.6242021,23.1558511 50.6461436,23.1558511 50.7753989,23.3509309 L53.6668883,27.6969415 C53.6668883,27.6969415 53.7965426,27.8920213 54.0295213,27.8920213 L58.8003989,27.8920213 Z M53.9305851,17.9066489 C53.9305851,19.0468085 53.0820479,19.7605053 51.6067819,19.7605053 L48.980984,19.7605053 C48.980984,19.7605053 48.7480053,19.7605053 48.7480053,19.5275266 L48.7480053,16.2414894 C48.7480053,16.2414894 48.7480053,16.0085106 48.980984,16.0085106 L51.5852394,16.0085106 C53.037367,16.0085106 53.9305851,16.6336436 53.9305851,17.862367 L53.9305851,17.9066489 Z" id="Fill-1" fill="#261B14" mask="url(#mask-2)"></path>
                        <path d="M19.8203457,39.8932181 C8.87393617,39.8932181 0,31.0196809 0,20.0732713 C0,9.1268617 8.87393617,0.253723404 19.8203457,0.253723404 C30.7667553,0.253723404 39.6402926,9.1268617 39.6402926,20.0732713 C39.6402926,31.0196809 30.7667553,39.8932181 19.8203457,39.8932181" id="Fill-3" fill="#6EDBD5" mask="url(#mask-2)"></path>
                        <path d="M23.4781915,17.4115691 C23.4781915,18.8114362 22.4349734,19.6890957 20.6234043,19.6890957 L17.3968085,19.6890957 C17.3968085,19.6890957 17.1107713,19.6890957 17.1107713,19.4026596 L17.1107713,15.3662234 C17.1107713,15.3662234 17.1107713,15.0789894 17.3968085,15.0789894 L20.5966755,15.0789894 C22.3807181,15.0789894 23.4781915,15.8469415 23.4781915,17.3569149 L23.4781915,17.4115691 Z M28.4784574,16.6420213 C28.4784574,16.6420213 29.1267287,10.8893617 20.8707447,10.8893617 L12.0734043,10.8893617 C12.0734043,10.8893617 11.7869681,10.8893617 11.7869681,11.1765957 L11.7869681,19.6890957 L0.00957446809,19.6890957 C0.00757978723,19.8175532 0,19.9444149 0,20.0732713 C0,20.5380319 0.0219414894,20.9976064 0.0534574468,21.4543883 L23.5164894,21.4543883 C26.3533245,21.4543883 28.4784574,19.9799202 28.4784574,16.6420213 Z" id="Fill-4" fill="#261B14" mask="url(#mask-2)"></path>
                    </g>
                    <path d="M12.0734043,29.6792553 L16.8239362,29.6792553 C16.8239362,29.6792553 17.1107713,29.6792553 17.1107713,29.3924202 L17.1107713,24.1480053 C17.1107713,24.1480053 17.112367,23.9397606 17.2902926,23.8787234 L19.437367,23.8787234 C19.4593085,23.9006649 19.5043883,23.9529255 19.6021277,24.099734 L23.1546543,29.4402926 C23.1546543,29.4402926 23.3130319,29.6792553 23.599867,29.6792553 L29.4610372,29.6792553 L24.8597074,23.3130319 C24.8589096,23.3118351 24.8585106,23.3110372 24.8577128,23.3098404 L24.6722074,23.0533245 C23.9776596,22.2003989 22.9655585,22.1194149 22.7022606,22.1134309 L0.10412234,22.1134309 C0.165159574,22.7106383 0.256117021,23.2986702 0.369015957,23.8787234 L11.7869681,23.8787234 L11.7869681,29.3924202 C11.7869681,29.3924202 11.7869681,29.6792553 12.0734043,29.6792553" id="Fill-6" fill="#261B14"></path>
                </g>
            </g>
        </g>
    </g>
</svg>